<?xml version="1.0" encoding="UTF-8" standalone="no"?>
<svg
   xmlns:dc="http://purl.org/dc/elements/1.1/"
   xmlns:cc="http://creativecommons.org/ns#"
   xmlns:rdf="http://www.w3.org/1999/02/22-rdf-syntax-ns#"
   xmlns:svg="http://www.w3.org/2000/svg"
   xmlns="http://www.w3.org/2000/svg"
   xmlns:sodipodi="http://sodipodi.sourceforge.net/DTD/sodipodi-0.dtd"
   xmlns:inkscape="http://www.inkscape.org/namespaces/inkscape"
   width="256"
   height="256"
   viewBox="0 0 67.733337 67.733334"
   version="1.1"
   id="svg5"
   sodipodi:docname="FireIcon.svg"
   inkscape:version="0.92.4 (5da689c313, 2019-01-14)">
  <metadata
     id="metadata11">
    <rdf:RDF>
      <cc:Work
         rdf:about="">
        <dc:format>image/svg+xml</dc:format>
        <dc:type
           rdf:resource="http://purl.org/dc/dcmitype/StillImage" />
        <dc:title />
      </cc:Work>
    </rdf:RDF>
  </metadata>
  <defs
     id="defs9" />
  <sodipodi:namedview
     pagecolor="#ffffff"
     bordercolor="#000000"
     borderopacity="1"
     objecttolerance="10"
     gridtolerance="10"
     guidetolerance="10"
     inkscape:pageopacity="0"
     inkscape:pageshadow="2"
     inkscape:window-width="2560"
     inkscape:window-height="1377"
     id="namedview7"
     showgrid="false"
     inkscape:snap-text-baseline="false"
     units="px"
     fit-margin-top="-0.2"
     fit-margin-left="0"
     fit-margin-right="0"
     fit-margin-bottom="0"
     inkscape:pagecheckerboard="true"
     borderlayer="true"
     inkscape:zoom="2"
     inkscape:cx="148.99988"
     inkscape:cy="119.01641"
     inkscape:window-x="-8"
     inkscape:window-y="-8"
     inkscape:window-maximized="1"
     inkscape:current-layer="svg5" />
  <g
     id="BezierCurve.001"
     style="fill:none;fill-opacity:1;stroke:#000000;stroke-width:98.21896089;stroke-miterlimit:4;stroke-dasharray:none;stroke-opacity:1"
     transform="matrix(0.02155049,0,0,0.02155049,16.91965,4.4986398)">
    <path
       style="fill:none;fill-opacity:1;stroke:#000000;stroke-width:98.21896089;stroke-miterlimit:4;stroke-dasharray:none;stroke-opacity:1"
       d="m 779.03,0 c 43.836,695.326 504.618,1293.771 514.397,1489.8 9.78,196.028 2.47,683.121 -537.232,698.991 C -283.642,2219.368 498.492,1055.024 435.135,620.834 706.892,1268.247 713.256,979.586 779.03,0 Z m 566.628,2375.304 c 156.117,-57.599 58.45,-329.542 -75.277,-296.776 -133.538,32.72 -1032.588,313.058 -1188.705,370.657 -156.117,57.599 -53.531,324.623 75.277,296.776 131.419,-28.412 1032.588,-313.058 1188.705,-370.657 z m -94.025,370.662 c 160.803,42.807 242.025,-250.663 109.35,-285.981 -132.675,-35.318 -1024.479,-338.654 -1185.282,-381.461 -160.804,-42.807 -242.025,250.663 -109.35,285.981 132.675,35.318 1024.479,338.654 1185.282,381.461 z"
       id="path2"
       inkscape:connector-curvature="0" />
  </g>
</svg>
